<svg width="333" height="107" xmlns="http://www.w3.org/2000/svg" xmlns:xlink="http://www.w3.org/1999/xlink" overflow="hidden"><defs><clipPath id="clip0"><rect x="475" y="449" width="333" height="107"/></clipPath></defs><g clip-path="url(#clip0)" transform="translate(-475 -449)"><path d="M477.5 458.5 806.82 458.5" stroke="#FFFFFF" stroke-width="2.66667" stroke-miterlimit="8" fill="none" fill-rule="evenodd"/><path d="M475.5 458.5 597.485 458.5" stroke="#FFFFFF" stroke-width="5.33333" stroke-miterlimit="8" fill="none" fill-rule="evenodd"/><path d="M0 8.5C-1.08216e-15 3.80558 3.80558-1.08216e-15 8.5-2.16433e-15 13.1944-4.32865e-15 17 3.80558 17 8.5 17 13.1944 13.1944 17 8.5 17 3.80558 17-5.41082e-15 13.1944 0 8.5Z" fill="#FFFFFF" fill-rule="evenodd" transform="matrix(1 0 0 -1 590 466)"/><path d="M607 522C607 503.775 621.775 489 640 489 658.225 489 673 503.775 673 522 673 540.225 658.225 555 640 555 621.775 555 607 540.225 607 522Z" fill="#FFFFFF" fill-rule="evenodd" fill-opacity="0.701961"/><path d="M631 508 657 522.5 631 537Z" fill="#FFFFFF" fill-rule="evenodd"/><path d="M716 511 735 522 716 533Z" fill="#FFFFFF" fill-rule="evenodd"/><rect x="737" y="511" width="5" height="22" fill="#FFFFFF"/><path d="M564 533 545 522 564 511Z" fill="#FFFFFF" fill-rule="evenodd"/><rect x="538" y="511" width="5" height="22" fill="#FFFFFF"/></g></svg>