<svg width="314" height="112" xmlns="http://www.w3.org/2000/svg" xmlns:xlink="http://www.w3.org/1999/xlink" overflow="hidden"><defs><clipPath id="clip0"><rect x="484" y="444" width="314" height="112"/></clipPath></defs><g clip-path="url(#clip0)" transform="translate(-484 -444)"><path d="M485.5 453.5 795.72 453.5" stroke="#FFFFFF" stroke-width="2.66667" stroke-miterlimit="8" fill="none" fill-rule="evenodd"/><path d="M484.5 453.5 599.41 453.5" stroke="#FFFFFF" stroke-width="5.33333" stroke-miterlimit="8" fill="none" fill-rule="evenodd"/><path d="M0 8.5C-1.08216e-15 3.80558 3.80558-1.08216e-15 8.5-2.16433e-15 13.1944-4.32865e-15 17 3.80558 17 8.5 17 13.1944 13.1944 17 8.5 17 3.80558 17-5.41082e-15 13.1944 0 8.5Z" fill="#FFFFFF" fill-rule="evenodd" transform="matrix(1 0 0 -1 599 462)"/><path d="M607 522C607 503.775 621.775 489 640 489 658.225 489 673 503.775 673 522 673 540.225 658.225 555 640 555 621.775 555 607 540.225 607 522Z" fill="#FFFFFF" fill-rule="evenodd" fill-opacity="0.701961"/><path d="M631 508 657 522.5 631 537Z" fill="#FFFFFF" fill-rule="evenodd"/><path d="M732 511 751 522 732 533Z" fill="#FFFFFF" fill-rule="evenodd"/><rect x="753" y="511" width="5" height="22" fill="#FFFFFF"/><path d="M548 533 529 522 548 511Z" fill="#FFFFFF" fill-rule="evenodd"/><rect x="522" y="511" width="5" height="22" fill="#FFFFFF"/></g></svg>